<svg width="48" height="50" viewBox="0 0 48 50" fill="none" xmlns="http://www.w3.org/2000/svg">
    <path
        d="M40 45.8335V35.4168C40 31.4877 40 29.5252 38.828 28.3043C37.656 27.0835 35.772 27.0835 32 27.0835L24 45.8335L16 27.0835C12.228 27.0835 10.344 27.0835 9.172 28.3043C8 29.5252 8 31.4877 8 35.4168V45.8335"
        stroke="black" stroke-width="1.5" stroke-linecap="round" stroke-linejoin="round" />
    <path
        d="M24 31.2501L23 39.5834L24 42.7084L25 39.5834L24 31.2501ZM24 31.2501L22 27.0834H26L24 31.2501ZM31 13.5417V11.4584C31 10.5009 30.8189 9.55268 30.4672 8.66801C30.1154 7.78335 29.5998 6.97952 28.9497 6.30243C28.2997 5.62533 27.5281 5.08823 26.6788 4.72179C25.8295 4.35535 24.9193 4.16675 24 4.16675C23.0807 4.16675 22.1705 4.35535 21.3212 4.72179C20.4719 5.08823 19.7003 5.62533 19.0503 6.30243C18.4002 6.97952 17.8846 7.78335 17.5328 8.66801C17.1811 9.55268 17 10.5009 17 11.4584V13.5417C17 14.4993 17.1811 15.4475 17.5328 16.3321C17.8846 17.2168 18.4002 18.0206 19.0503 18.6977C19.7003 19.3748 20.4719 19.9119 21.3212 20.2784C22.1705 20.6448 23.0807 20.8334 24 20.8334C24.9193 20.8334 25.8295 20.6448 26.6788 20.2784C27.5281 19.9119 28.2997 19.3748 28.9497 18.6977C29.5998 18.0206 30.1154 17.2168 30.4672 16.3321C30.8189 15.4475 31 14.4993 31 13.5417Z"
        stroke="black" stroke-width="1.5" stroke-linecap="round" stroke-linejoin="round" />
</svg>