<svg width="91" height="89" viewBox="0 0 91 89" fill="none" xmlns="http://www.w3.org/2000/svg">
    <g clip-path="url(#clip0_4035_433)">
        <path
            d="M48.5432 7.14689e-06C41.0286 0.00231479 33.6553 2.01577 27.2088 5.82594C20.7622 9.63609 15.4838 15.1002 11.9356 21.6364C8.38737 28.1726 6.70237 35.536 7.06001 42.9424C7.41765 50.3488 9.80455 57.5208 13.9665 63.6942L7 81.9831L30.3281 77.8204C35.9454 80.5292 42.1099 81.952 48.362 81.9825C54.614 82.013 60.7925 80.6507 66.4367 77.9972C72.0807 75.3437 77.0454 71.4671 80.96 66.6573C84.8746 61.8469 87.6385 56.2268 89.0456 50.2159C90.452 44.205 90.4662 37.9582 89.0855 31.9413C87.7055 25.9245 84.9667 20.2926 81.0734 15.4655C77.1801 10.6385 72.2327 6.7408 66.6002 4.06304C60.9677 1.38521 54.7953 -0.0036355 48.5432 7.14689e-06Z"
            stroke="black" stroke-linecap="round" stroke-linejoin="round" />
        <path
            d="M38.9565 31.5319C38.9565 29.6609 39.5188 27.832 40.5722 26.2764C41.6256 24.7207 43.1229 23.5083 44.8747 22.7924C46.6265 22.0764 48.554 21.889 50.4137 22.254C52.2734 22.619 53.9816 23.5199 55.3224 24.8429C56.6632 26.1659 57.5762 27.8514 57.9461 29.6864C58.316 31.5214 58.1262 33.4234 57.4006 35.1519C56.6749 36.8804 55.4462 38.3578 53.8697 39.3972C52.2931 40.4366 50.4396 40.9914 48.5434 40.9914V47.2978"
            stroke="black" stroke-linecap="round" stroke-linejoin="round" />
        <path
            d="M48.5558 63.0643C47.6733 63.0643 46.958 62.358 46.958 61.4877C46.958 60.6168 47.6733 59.9109 48.5558 59.9109"
            stroke="black" stroke-linecap="round" stroke-linejoin="round" />
        <path
            d="M48.5547 63.0649C49.4371 63.0649 50.1525 62.3592 50.1525 61.4883C50.1525 60.6174 49.4371 59.9117 48.5547 59.9117"
            stroke="black" stroke-linecap="round" stroke-linejoin="round" />
    </g>
    <defs>
        <clipPath id="clip0_4035_433">
            <rect width="90.1978" height="89" fill="white" />
        </clipPath>
    </defs>
</svg>