<svg width="24" height="30" viewBox="0 0 24 30" fill="none" xmlns="http://www.w3.org/2000/svg">
<path d="M17.4998 10.2154C18.5124 10.2154 19.3332 9.18399 19.3332 7.91166C19.3332 6.63933 18.5124 5.60791 17.4998 5.60791C16.4873 5.60791 15.6665 6.63933 15.6665 7.91166C15.6665 9.18399 16.4873 10.2154 17.4998 10.2154Z" fill="black"/>
<path d="M1 13.2867C1 7.49504 1 4.59846 2.43244 2.8C3.86367 1 6.16878 1 10.7778 1H13.2222C17.8312 1 20.1363 1 21.5676 2.8C23 4.59846 23 7.49504 23 13.2867V16.3583C23 22.15 23 25.0466 21.5676 26.845C20.1363 28.645 17.8312 28.645 13.2222 28.645H10.7778C6.16878 28.645 3.86367 28.645 2.43244 26.845C1 25.0466 1 22.15 1 16.3583V13.2867Z" stroke="black" stroke-width="2"/>
<path d="M12.0002 19.4303C14.0252 19.4303 15.6668 17.3675 15.6668 14.8228C15.6668 12.2782 14.0252 10.2153 12.0002 10.2153C9.97512 10.2153 8.3335 12.2782 8.3335 14.8228C8.3335 17.3675 9.97512 19.4303 12.0002 19.4303Z" stroke="black" stroke-width="2"/>
</svg>
