<svg width="24" height="28" viewBox="0 0 24 28" fill="none" xmlns="http://www.w3.org/2000/svg">
<path fill-rule="evenodd" clip-rule="evenodd" d="M3.21951 0C2.36564 0 1.54675 0.390714 0.942973 1.08619C0.339198 1.78166 0 2.72493 0 3.70848C0 4.69203 0.339198 5.63529 0.942973 6.33077C1.54675 7.02624 2.36564 7.41696 3.21951 7.41696C4.07338 7.41696 4.89228 7.02624 5.49605 6.33077C6.09983 5.63529 6.43902 4.69203 6.43902 3.70848C6.43902 2.72493 6.09983 1.78166 5.49605 1.08619C4.89228 0.390714 4.07338 0 3.21951 0ZM1.7561 3.70848C1.7561 3.26141 1.91028 2.83265 2.18472 2.51653C2.45917 2.2004 2.83139 2.02281 3.21951 2.02281C3.60763 2.02281 3.97986 2.2004 4.2543 2.51653C4.52875 2.83265 4.68293 3.26141 4.68293 3.70848C4.68293 4.15555 4.52875 4.5843 4.2543 4.90043C3.97986 5.21655 3.60763 5.39415 3.21951 5.39415C2.83139 5.39415 2.45917 5.21655 2.18472 4.90043C1.91028 4.5843 1.7561 4.15555 1.7561 3.70848ZM0 9.10263C0 8.83439 0.0925083 8.57713 0.257174 8.38746C0.42184 8.19778 0.645176 8.09122 0.878049 8.09122H5.56098C5.79385 8.09122 6.01718 8.19778 6.18185 8.38746C6.34652 8.57713 6.43902 8.83439 6.43902 9.10263V26.6336C6.43902 26.9019 6.34652 27.1591 6.18185 27.3488C6.01718 27.5385 5.79385 27.645 5.56098 27.645H0.878049C0.645176 27.645 0.42184 27.5385 0.257174 27.3488C0.0925083 27.1591 0 26.9019 0 26.6336V9.10263ZM1.7561 10.114V25.6222H4.68293V10.114H1.7561ZM8.19512 9.10263C8.19512 8.83439 8.28763 8.57713 8.4523 8.38746C8.61696 8.19778 8.8403 8.09122 9.07317 8.09122H13.7561C13.989 8.09122 14.2123 8.19778 14.377 8.38746C14.5416 8.57713 14.6341 8.83439 14.6341 9.10263V9.68789L15.1434 9.43572C16.0215 9.00348 16.953 8.73272 17.904 8.63334C21.1528 8.29351 24 11.2333 24 15.0092V26.6336C24 26.9019 23.9075 27.1591 23.7428 27.3488C23.5782 27.5385 23.3548 27.645 23.122 27.645H18.439C18.2062 27.645 17.9828 27.5385 17.8181 27.3488C17.6535 27.1591 17.561 26.9019 17.561 26.6336V17.1939C17.561 16.7468 17.4068 16.318 17.1324 16.0019C16.8579 15.6858 16.4857 15.5082 16.0976 15.5082C15.7094 15.5082 15.3372 15.6858 15.0628 16.0019C14.7883 16.318 14.6341 16.7468 14.6341 17.1939V26.6336C14.6341 26.9019 14.5416 27.1591 14.377 27.3488C14.2123 27.5385 13.989 27.645 13.7561 27.645H9.07317C8.8403 27.645 8.61696 27.5385 8.4523 27.3488C8.28763 27.1591 8.19512 26.9019 8.19512 26.6336V9.10263ZM9.95122 10.114V25.6222H12.878V17.1939C12.878 16.2103 13.2172 15.267 13.821 14.5716C14.4248 13.8761 15.2437 13.4854 16.0976 13.4854C16.9514 13.4854 17.7703 13.8761 18.3741 14.5716C18.9779 15.267 19.3171 16.2103 19.3171 17.1939V25.6222H22.2439V15.0092C22.2439 12.4416 20.2993 10.4134 18.0644 10.6481C17.2966 10.7285 16.5445 10.9469 15.8353 11.2954L14.1026 12.1517C13.969 12.2178 13.8232 12.2446 13.6783 12.2298C13.5334 12.215 13.394 12.1589 13.2726 12.0666C13.1512 11.9744 13.0516 11.8488 12.9827 11.7013C12.9138 11.5537 12.8779 11.3887 12.878 11.2212V10.114H9.95122Z" fill="black"/>
</svg>
