<svg width="63" height="57" viewBox="0 0 63 57" fill="none" xmlns="http://www.w3.org/2000/svg">
<path d="M46.3516 6.14278C46.5109 5.93872 46.7128 5.76521 46.9457 5.63217C47.1787 5.49912 47.4381 5.40915 47.7093 5.36739C47.9805 5.32563 48.258 5.3329 48.5261 5.38879C48.7942 5.44467 49.0476 5.54807 49.2717 5.69309C52.0876 7.51224 54.5462 9.75061 56.544 12.314C56.712 12.5174 56.8335 12.7494 56.9013 12.9962C56.9692 13.2431 56.982 13.4998 56.9391 13.7512C56.8962 14.0027 56.7984 14.2437 56.6515 14.4602C56.5045 14.6767 56.3114 14.8642 56.0836 15.0116C55.8557 15.1591 55.5978 15.2635 55.3248 15.3188C55.0519 15.374 54.7696 15.379 54.4946 15.3333C54.2195 15.2877 53.9573 15.1923 53.7234 15.053C53.4895 14.9136 53.2886 14.733 53.1326 14.5218C51.4016 12.3094 49.2768 10.3756 46.8458 8.8003C46.6215 8.65536 46.4309 8.47165 46.2847 8.25964C46.1385 8.04763 46.0396 7.81149 45.9938 7.5647C45.9479 7.31792 45.9559 7.06532 46.0173 6.82134C46.0787 6.57737 46.1923 6.34679 46.3516 6.14278ZM56.0527 42.004C56.2767 42.1491 56.4671 42.333 56.613 42.5451C56.7589 42.7572 56.8575 42.9934 56.9031 43.2402C56.9488 43.4869 56.9405 43.7395 56.8789 43.9834C56.8173 44.2272 56.7035 44.4577 56.544 44.6615C54.546 47.224 52.0874 49.4615 49.2717 51.2799C49.0482 51.4328 48.7933 51.5434 48.5221 51.6051C48.2509 51.6669 47.9688 51.6786 47.6925 51.6395C47.4162 51.6005 47.1514 51.5115 46.9135 51.3777C46.6756 51.244 46.4696 51.0683 46.3076 50.8609C46.1455 50.6535 46.0308 50.4188 45.9701 50.1704C45.9094 49.922 45.9039 49.6651 45.9541 49.4147C46.0043 49.1644 46.109 48.9258 46.2621 48.7129C46.4153 48.5 46.6137 48.3172 46.8458 48.1753C49.2768 46.5999 51.4016 44.6661 53.1326 42.4537C53.2918 42.2496 53.4937 42.0761 53.7267 41.9431C53.9596 41.8101 54.2191 41.7201 54.4903 41.6783C54.7614 41.6366 55.039 41.6438 55.3071 41.6997C55.5752 41.7556 55.8285 41.859 56.0527 42.004ZM3.63354 22.2454C4.18103 22.3294 4.66947 22.6078 4.99143 23.0194C5.3134 23.4311 5.44252 23.9422 5.35042 24.4405C4.85502 27.1199 4.85502 29.8557 5.35042 32.535C5.39624 32.7819 5.38819 33.0346 5.32671 33.2787C5.26522 33.5227 5.15153 33.7534 4.9921 33.9575C4.83267 34.1615 4.63064 34.335 4.39754 34.468C4.16444 34.6011 3.90483 34.691 3.63354 34.7327C3.36225 34.7744 3.08459 34.7671 2.81642 34.7111C2.54824 34.6552 2.2948 34.5517 2.07057 34.4066C1.84634 34.2615 1.6557 34.0776 1.50954 33.8655C1.36339 33.6533 1.26458 33.4171 1.21875 33.1702C0.639974 30.0708 0.639974 26.9048 1.21875 23.8054C1.26473 23.5586 1.36367 23.3225 1.50992 23.1106C1.65617 22.8987 1.84686 22.715 2.0711 22.5702C2.29534 22.4253 2.54874 22.3221 2.81682 22.2663C3.08491 22.2106 3.36243 22.2035 3.63354 22.2454ZM24.6408 53.8485C24.7331 53.3503 25.039 52.9057 25.4913 52.6127C25.9436 52.3197 26.5053 52.2022 27.0528 52.286C29.9969 52.7369 33.003 52.7369 35.9471 52.286C36.2184 52.2443 36.496 52.2516 36.7642 52.3076C37.0324 52.3635 37.2858 52.467 37.5101 52.6121C37.7343 52.7572 37.9249 52.9411 38.0711 53.1532C38.2172 53.3654 38.3161 53.6016 38.3619 53.8485C38.4077 54.0954 38.3996 54.3481 38.3382 54.5922C38.2767 54.8362 38.163 55.0669 38.0036 55.2709C37.8441 55.475 37.6421 55.6485 37.409 55.7815C37.1759 55.9145 36.9163 56.0045 36.645 56.0462C33.2394 56.5729 29.7605 56.5729 26.3549 56.0462C26.0838 56.0043 25.8244 55.9143 25.5915 55.7812C25.3586 55.6481 25.1569 55.4745 24.9977 55.2705C24.8385 55.0664 24.7251 54.8358 24.6638 54.5918C24.6026 54.3478 24.5948 54.0952 24.6408 53.8485ZM16.6483 6.14278C16.8076 6.34679 16.9213 6.57737 16.9827 6.82134C17.0441 7.06532 17.0521 7.31792 17.0062 7.5647C16.9603 7.81149 16.8614 8.04763 16.7152 8.25964C16.569 8.47165 16.3784 8.65536 16.1542 8.8003C13.7221 10.3754 11.5963 12.3092 9.86454 14.5218C9.54247 14.9339 9.05373 15.2126 8.50585 15.2967C7.95797 15.3808 7.39582 15.2634 6.94306 14.9703C6.49031 14.6771 6.18405 14.2324 6.09164 13.7337C5.99924 13.2351 6.12826 12.7235 6.45033 12.3115C8.44922 9.74877 10.9087 7.51125 13.7254 5.69309C13.9496 5.54807 14.2029 5.44467 14.471 5.38879C14.7391 5.3329 15.0167 5.32563 15.2878 5.36739C15.559 5.40915 15.8185 5.49912 16.0514 5.63217C16.2844 5.76521 16.489 5.93872 16.6483 6.14278ZM6.94725 42.004C7.17141 41.859 7.42477 41.7556 7.69285 41.6997C7.96093 41.6438 8.23849 41.6366 8.50966 41.6783C8.78083 41.7201 9.0403 41.8101 9.27326 41.9431C9.50621 42.0761 9.70808 42.2496 9.86733 42.4537C11.5983 44.6661 13.7231 46.5999 16.1542 48.1753C16.3783 48.3204 16.5689 48.5043 16.715 48.7164C16.8611 48.9286 16.9598 49.1649 17.0056 49.4118C17.0513 49.6587 17.0432 49.9113 16.9817 50.1554C16.9201 50.3994 16.8064 50.63 16.6469 50.834C16.4874 51.0381 16.2854 51.2115 16.0522 51.3445C15.8191 51.4774 15.5595 51.5673 15.2882 51.6089C15.0169 51.6505 14.7393 51.6431 14.4711 51.5871C14.203 51.5311 13.9496 51.4276 13.7254 51.2825C10.9095 49.4633 8.45093 47.2249 6.45313 44.6615C6.29378 44.4575 6.18016 44.227 6.11876 43.983C6.05735 43.739 6.04936 43.4864 6.09525 43.2396C6.14114 42.9928 6.24 42.7567 6.38619 42.5447C6.53237 42.3327 6.72303 42.149 6.94725 42.004ZM26.3549 0.931916C29.7605 0.405182 33.2394 0.405182 36.645 0.931916C37.1902 1.0184 37.6756 1.29783 37.9951 1.70911C38.3146 2.12039 38.4422 2.63005 38.3499 3.12668C38.2577 3.62331 37.9531 4.06651 37.5029 4.35937C37.0526 4.65223 36.4932 4.77094 35.9471 4.68953C33.003 4.23868 29.9969 4.23868 27.0528 4.68953C26.7815 4.73124 26.5039 4.72391 26.2357 4.66795C25.9675 4.612 25.7141 4.50853 25.4899 4.36343C25.2656 4.21834 25.075 4.03448 24.9288 3.82234C24.7827 3.61019 24.6839 3.37393 24.638 3.12703C24.5922 2.88014 24.6003 2.62745 24.6618 2.38339C24.7232 2.13932 24.8369 1.90867 24.9964 1.7046C25.1558 1.50053 25.3578 1.32703 25.5909 1.19402C25.824 1.06101 26.0836 0.97108 26.3549 0.929375V0.931916ZM59.3664 22.2454C59.9135 22.1615 60.4748 22.2787 60.927 22.5712C61.3793 22.8637 61.6855 23.3076 61.7784 23.8054C62.3572 26.9048 62.3572 30.0708 61.7784 33.1702C61.6833 33.6664 61.3763 34.1082 60.9244 34.3989C60.4725 34.6897 59.9125 34.8058 59.3668 34.7218C58.8211 34.6379 58.3341 34.3607 58.0123 33.9509C57.6905 33.5411 57.5601 33.0321 57.6495 32.535C58.1449 29.8557 58.1449 27.1199 57.6495 24.4405C57.5574 23.9422 57.6865 23.4311 58.0085 23.0194C58.3304 22.6078 58.8189 22.3294 59.3664 22.2454Z" fill="black"/>
</svg>
