<svg width="112" height="105" viewBox="0 0 112 105" fill="none" xmlns="http://www.w3.org/2000/svg">
<path d="M0.52002 103.628C0.58203 98.6589 1.99999 93.7841 4.64266 89.4553C7.42955 84.9535 11.4468 81.2066 16.2927 78.589C21.1386 75.9715 26.6434 74.5751 32.2566 74.5395C43.5787 74.5635 54.2959 80.3445 59.8705 89.4553C62.5118 93.7818 63.9297 98.6536 63.9932 103.62M81.4517 7.04322V0.495605M105.643 15.084L111.442 11.3231M57.2431 15.084L51.4351 11.3231M32.2479 60.6298C34.3898 60.6757 36.52 60.3256 38.5134 59.6C40.5067 58.8745 42.3229 57.7881 43.8554 56.4048C45.3878 55.0215 46.6054 53.3692 47.4368 51.5449C48.2681 49.7207 48.6964 47.7613 48.6964 45.7819C48.6964 43.8026 48.2681 41.8432 47.4368 40.0189C46.6054 38.1946 45.3878 36.5423 43.8554 35.159C42.3229 33.7757 40.5067 32.6893 38.5134 31.9638C36.52 31.2382 34.3898 30.8881 32.2479 30.934C28.0501 31.024 24.0569 32.6278 21.1224 35.4025C18.1879 38.1772 16.545 41.9026 16.545 45.7819C16.545 49.6613 18.1879 53.3866 21.1224 56.1613C24.0569 58.9361 28.0501 60.5399 32.2479 60.6298ZM99.0227 36.3877C99.008 34.2267 98.5315 32.0897 97.6204 30.0994C96.7093 28.109 95.3817 26.3045 93.7137 24.7895C92.0458 23.2745 90.0703 22.0788 87.9008 21.271C85.7313 20.4633 83.4104 20.0594 81.0714 20.0825C78.7334 20.1495 76.4327 20.6426 74.3015 21.5333C72.1702 22.424 70.2504 23.6949 68.6523 25.273C67.0542 26.8511 65.8092 28.7054 64.9889 30.7292C64.1686 32.7531 63.7891 34.9067 63.8722 37.0664C64.0443 39.9543 65.0337 42.7499 66.7414 45.174C68.4491 47.598 70.8155 49.5657 73.604 50.8803V58.8652C73.6197 59.3348 73.8321 59.7804 74.1965 60.1081C74.5609 60.4358 75.0488 60.62 75.5573 60.6218H87.3202C87.8303 60.6221 88.3203 60.4388 88.6866 60.1109C89.0528 59.7829 89.2664 59.3361 89.2822 58.8652V50.7365C92.1573 49.38 94.5815 47.33 96.2979 44.8038C98.0143 42.2777 98.9501 39.3695 99.0227 36.3877Z" stroke="black" stroke-linecap="round" stroke-linejoin="round"/>
</svg>
