<svg width="101" height="62" viewBox="0 0 101 62" fill="none" xmlns="http://www.w3.org/2000/svg">
<path d="M1.22754 3.95117L18.1527 11.5824L33.2727 9.39647C35.79 9.0313 38.3727 9.14073 40.8333 9.71683C43.2939 10.2929 45.5705 11.3212 47.4978 12.727M84.0327 44.0278L60.103 58.2813C57.5338 59.8114 54.4674 60.6452 51.316 60.6707C48.1647 60.6961 45.0796 59.9119 42.4758 58.4236L1.22754 34.851" stroke="black" stroke-linecap="round" stroke-linejoin="round"/>
<path d="M100.387 34.7022L83.454 44.4028L57.1791 26.6183L47.5131 32.5098C45.6213 33.6613 43.2702 34.1524 40.955 33.8798C38.6398 33.6072 36.5411 32.5921 35.1009 31.0482C33.6683 29.5052 33.0039 27.5571 33.2469 25.6124C33.49 23.6677 34.6216 21.8774 36.4046 20.6168L46.4717 13.5224C48.8579 11.8385 51.6255 10.5763 54.6083 9.8117C57.591 9.04709 60.7274 8.79584 63.8289 9.07303L79.512 10.4829L100.387 1.02148" stroke="black" stroke-linecap="round" stroke-linejoin="round"/>
<path d="M57.1792 26.6636C63.5049 31.3845 72.4689 28.9723 75.8015 25.1179" stroke="black" stroke-linecap="round" stroke-linejoin="round"/>
</svg>
